<?xml version="1.0" encoding="iso-8859-1"?>
<!-- Generator: Adobe Illustrator 28.1.0, SVG Export Plug-In . SVG Version: 6.00 Build 0)  -->
<svg version="1.1" id="Ebene_1" xmlns="http://www.w3.org/2000/svg" xmlns:xlink="http://www.w3.org/1999/xlink" x="0px" y="0px"
	 viewBox="0 0 512 512" style="enable-background:new 0 0 512 512;" xml:space="preserve">
<circle style="fill:#160D74;" cx="256" cy="256" r="256"/>
<g>
	<path style="fill:#FF6C64;" d="M170.137,319.234c3.606-37.276,33.349-67.019,70.625-70.625v-81.756
		c-18.919,0.882-37.298,5.047-54.738,12.423c-19.08,8.07-36.208,19.615-50.906,34.314c-14.698,14.698-26.243,31.826-34.313,50.906
		c-7.376,17.44-11.542,35.819-12.424,54.738H170.137z"/>
	<path style="fill:#FF6C64;" d="M408.381,237.478c-37.277-3.606-67.019-33.349-70.625-70.625H256
		c0.882,18.919,5.047,37.298,12.423,54.738c8.07,19.08,19.615,36.208,34.314,50.906c14.698,14.698,31.826,26.243,50.906,34.313
		c17.44,7.376,35.82,11.541,54.738,12.423V237.478z"/>
</g>
</svg>
