<svg xmlns="http://www.w3.org/2000/svg" viewBox="0 0 148 32" style="enable-background:new 0 0 148 32" xml:space="preserve"><path style="fill:#4f46e5" d="M15.209 27.588a4.329 4.329 0 0 1-1.21 3.112 4.28 4.28 0 0 1-3.062 1.3 4.263 4.263 0 0 1-3.066-1.3 4.298 4.298 0 0 1-1.205-3.112 4.159 4.159 0 0 1 .593-2.111 4.176 4.176 0 0 1 1.567-1.527c-.027.117.094-.061 0 0l1.984-1.766a9.05 9.05 0 0 0 2.455-6.178c0-3.122-1.822-6.295-4.444-7.956.1.061-.038-.1 0 0a4.154 4.154 0 0 1-1.566-1.528 4.154 4.154 0 0 1-.595-2.11A4.28 4.28 0 0 1 10.927 0c1.155 0 2.26.467 3.066 1.3a4.303 4.303 0 0 1 1.206 3.112 9.11 9.11 0 0 0 2.505 6.222l.872.849c.346.306.711.589 1.089.85a4.124 4.124 0 0 1 1.606 1.527 4.16 4.16 0 0 1-1.606 5.806c.038-.073-.067.038 0 0a9.635 9.635 0 0 0-3.223 3.395 9.61 9.61 0 0 0-1.233 4.527zM19.988 4.4a4.297 4.297 0 0 0 2.638 3.967c1.6.661 3.439.294 4.662-.933a4.32 4.32 0 0 0 .922-4.678 4.264 4.264 0 0 0-6.966-1.395A4.327 4.327 0 0 0 19.988 4.4zm4.276 18.895c-.843 0-1.671.256-2.377.722a4.332 4.332 0 0 0-1.573 1.927 4.316 4.316 0 0 0 .929 4.683 4.252 4.252 0 0 0 4.655.929 4.308 4.308 0 0 0 1.384-7.005 4.267 4.267 0 0 0-3.018-1.256zm10.934-7.301c0-.85-.25-1.678-.723-2.384a4.246 4.246 0 0 0-1.916-1.583 4.252 4.252 0 0 0-4.656.927 4.316 4.316 0 0 0-.927 4.683 4.281 4.281 0 0 0 3.95 2.651 4.282 4.282 0 0 0 3.017-1.261 4.289 4.289 0 0 0 1.255-3.033zM4.271 11.701a4.24 4.24 0 0 0-2.372.721 4.308 4.308 0 0 0-.65 6.606 4.273 4.273 0 0 0 4.661.933 4.295 4.295 0 0 0 1.917-1.583 4.304 4.304 0 0 0-.533-5.417 4.271 4.271 0 0 0-3.023-1.26zm0 0"/><path style="fill:#27272a" d="M67.166 12.057c.966.966 1.449 2.315 1.449 4.044v7.533H65.37v-7.093c0-1.004-.255-1.773-.765-2.306-.51-.533-1.205-.799-2.086-.799-.881 0-1.58.266-2.097.799-.518.533-.777 1.302-.777 2.306v7.093H56.4v-7.093c0-1.004-.255-1.773-.765-2.306-.51-.533-1.205-.799-2.086-.799-.897 0-1.603.266-2.121.799s-.776 1.302-.776 2.306v7.093h-3.245V10.793h3.245v1.554a4.313 4.313 0 0 1 1.611-1.275 5.024 5.024 0 0 1 2.167-.464c1.004 0 1.9.213 2.688.638a4.469 4.469 0 0 1 1.831 1.819c.417-.742 1.023-1.336 1.82-1.784a5.168 5.168 0 0 1 2.584-.673c1.577 0 2.848.484 3.813 1.449zm4.473 1.657c.518-1.004 1.22-1.777 2.109-2.318.889-.54 1.881-.811 2.979-.811.958 0 1.796.193 2.515.579.719.387 1.294.873 1.727 1.46v-1.831h3.268v12.841h-3.268v-1.878c-.418.603-.994 1.101-1.727 1.495s-1.579.592-2.538.592a5.47 5.47 0 0 1-2.955-.834c-.889-.557-1.592-1.341-2.109-2.353-.518-1.011-.776-2.175-.776-3.488-.001-1.298.258-2.449.775-3.454zm8.866 1.473a3.267 3.267 0 0 0-1.251-1.298c-.526-.301-1.09-.452-1.692-.452s-1.158.147-1.669.44c-.51.293-.924.722-1.24 1.286-.317.564-.475 1.233-.475 2.005 0 .773.158 1.449.475 2.028.316.579.734 1.024 1.251 1.332.518.31 1.07.464 1.657.464.603 0 1.167-.151 1.692-.452a3.28 3.28 0 0 0 1.251-1.298c.309-.564.464-1.24.464-2.028s-.154-1.464-.463-2.027zm7.127-6.468c-.379-.362-.567-.815-.567-1.356 0-.54.188-.992.567-1.356.379-.362.854-.544 1.426-.544.571 0 1.046.182 1.425.544.379.364.568.816.568 1.356 0 .541-.189.994-.568 1.356-.379.363-.854.545-1.425.545-.572.001-1.048-.182-1.426-.545zm3.025 2.074v12.841h-3.245V10.793h3.245zm6.443-4.31v17.152h-3.245V6.483H97.1zm8.172 4.682c.734-.386 1.572-.579 2.515-.579 1.097 0 2.09.271 2.979.811.888.541 1.592 1.31 2.109 2.307.518.996.777 2.151.777 3.465 0 1.313-.259 2.476-.777 3.488s-1.221 1.796-2.109 2.353c-.889.556-1.882.834-2.979.834-.958 0-1.796-.189-2.515-.568-.719-.379-1.294-.869-1.727-1.472v1.831H100.3V6.483h3.245v6.189c.417-.618.992-1.12 1.727-1.507zm4.588 3.998c-.317-.564-.734-.993-1.251-1.286a3.36 3.36 0 0 0-1.681-.44c-.587 0-1.139.15-1.656.452-.519.301-.935.738-1.252 1.31-.317.572-.475 1.244-.475 2.017 0 .773.158 1.445.475 2.017.317.571.734 1.008 1.252 1.31a3.25 3.25 0 0 0 1.656.452c.603 0 1.163-.154 1.681-.464a3.436 3.436 0 0 0 1.251-1.321c.317-.571.475-1.251.475-2.039.001-.775-.158-1.444-.475-2.008zm9.399-8.68v17.152h-3.245V6.483h3.245zm5.563 16.537a5.915 5.915 0 0 1-2.329-2.329c-.564-1.004-.846-2.164-.846-3.477 0-1.314.29-2.472.869-3.477a6.028 6.028 0 0 1 2.376-2.33c1.004-.547 2.125-.822 3.36-.822 1.237 0 2.357.275 3.361.822a6.047 6.047 0 0 1 2.376 2.33c.579 1.004.869 2.163.869 3.477 0 1.313-.297 2.472-.892 3.477a6.187 6.187 0 0 1-2.411 2.329c-1.012.548-2.144.823-3.396.823-1.235 0-2.348-.274-3.337-.823zm4.995-2.433c.518-.286.931-.715 1.24-1.287.31-.571.464-1.267.464-2.085 0-1.22-.321-2.16-.962-2.816-.641-.657-1.426-.986-2.353-.986-.927 0-1.703.328-2.329.986-.626.656-.938 1.596-.938 2.816s.305 2.16.916 2.816c.61.656 1.379.985 2.306.985a3.385 3.385 0 0 0 1.656-.429zm14.521 3.048-2.642-3.987-2.342 3.987h-3.477l4.196-6.444-4.242-6.397h3.663l2.618 3.964 2.364-3.964h3.477l-4.218 6.397L148 23.635h-3.662z"/></svg>