<svg xmlns="http://www.w3.org/2000/svg" viewBox="0 0 35.198 32" style="enable-background:new 0 0 35.198 32" xml:space="preserve"><path style="fill:#4f46e5" d="M15.209 27.588a4.329 4.329 0 0 1-1.21 3.112 4.28 4.28 0 0 1-3.062 1.3 4.263 4.263 0 0 1-3.066-1.3 4.298 4.298 0 0 1-1.205-3.112 4.159 4.159 0 0 1 .593-2.111 4.176 4.176 0 0 1 1.567-1.527c-.027.117.094-.061 0 0l1.984-1.766a9.05 9.05 0 0 0 2.455-6.178c0-3.122-1.822-6.295-4.444-7.956.1.061-.038-.1 0 0a4.154 4.154 0 0 1-1.566-1.528 4.154 4.154 0 0 1-.595-2.11A4.28 4.28 0 0 1 10.927 0c1.155 0 2.26.467 3.066 1.3a4.303 4.303 0 0 1 1.206 3.112 9.11 9.11 0 0 0 2.505 6.222l.872.849c.346.306.711.589 1.089.85a4.124 4.124 0 0 1 1.606 1.527 4.16 4.16 0 0 1-1.606 5.806c.038-.073-.067.038 0 0a9.635 9.635 0 0 0-3.223 3.395 9.61 9.61 0 0 0-1.233 4.527zM19.988 4.4a4.297 4.297 0 0 0 2.638 3.967c1.6.661 3.439.294 4.662-.933a4.32 4.32 0 0 0 .922-4.678 4.264 4.264 0 0 0-6.966-1.395A4.327 4.327 0 0 0 19.988 4.4zm4.276 18.895c-.843 0-1.671.256-2.377.722a4.332 4.332 0 0 0-1.573 1.927 4.316 4.316 0 0 0 .929 4.683 4.252 4.252 0 0 0 4.655.929 4.308 4.308 0 0 0 1.384-7.005 4.267 4.267 0 0 0-3.018-1.256zm10.934-7.301c0-.85-.25-1.678-.723-2.384a4.246 4.246 0 0 0-1.916-1.583 4.252 4.252 0 0 0-4.656.927 4.316 4.316 0 0 0-.927 4.683 4.281 4.281 0 0 0 3.95 2.651 4.282 4.282 0 0 0 3.017-1.261 4.289 4.289 0 0 0 1.255-3.033zM4.271 11.701a4.24 4.24 0 0 0-2.372.721 4.308 4.308 0 0 0-.65 6.606 4.273 4.273 0 0 0 4.661.933 4.295 4.295 0 0 0 1.917-1.583 4.304 4.304 0 0 0-.533-5.417 4.271 4.271 0 0 0-3.023-1.26zm0 0"/></svg>